<mxfile host="app.diagrams.net" agent="Mozilla/5.0 (Windows NT 10.0; Win64; x64) AppleWebKit/537.36 (KHTML, like Gecko) Chrome/140.0.0.0 Safari/537.36" version="28.2.3">
  <diagram name="PÃ¡gina-1" id="5DLvrfGiPdBzSQXFF9YD">
    <mxGraphModel dx="1426" dy="743" grid="1" gridSize="10" guides="1" tooltips="1" connect="1" arrows="1" fold="1" page="1" pageScale="1" pageWidth="827" pageHeight="1169" math="0" shadow="0">
      <root>
        <mxCell id="0" />
        <mxCell id="1" parent="0" />
        <mxCell id="1qY7lFmSE5d6h6JdwNv--3" style="edgeStyle=orthogonalEdgeStyle;rounded=0;orthogonalLoop=1;jettySize=auto;html=1;entryX=0.5;entryY=0;entryDx=0;entryDy=0;" parent="1" source="1qY7lFmSE5d6h6JdwNv--1" target="1qY7lFmSE5d6h6JdwNv--2" edge="1">
          <mxGeometry relative="1" as="geometry" />
        </mxCell>
        <mxCell id="1qY7lFmSE5d6h6JdwNv--1" value="inico" style="ellipse;whiteSpace=wrap;html=1;" parent="1" vertex="1">
          <mxGeometry x="349" y="10" width="129" height="70" as="geometry" />
        </mxCell>
        <mxCell id="1qY7lFmSE5d6h6JdwNv--5" style="edgeStyle=orthogonalEdgeStyle;rounded=0;orthogonalLoop=1;jettySize=auto;html=1;entryX=0.5;entryY=0;entryDx=0;entryDy=0;" parent="1" source="1qY7lFmSE5d6h6JdwNv--2" target="1qY7lFmSE5d6h6JdwNv--4" edge="1">
          <mxGeometry relative="1" as="geometry" />
        </mxCell>
        <mxCell id="1qY7lFmSE5d6h6JdwNv--2" value="Ler N1,N2,N3" style="shape=parallelogram;perimeter=parallelogramPerimeter;whiteSpace=wrap;html=1;fixedSize=1;" parent="1" vertex="1">
          <mxGeometry x="354" y="170" width="120" height="60" as="geometry" />
        </mxCell>
        <mxCell id="1qY7lFmSE5d6h6JdwNv--8" style="edgeStyle=orthogonalEdgeStyle;rounded=0;orthogonalLoop=1;jettySize=auto;html=1;entryX=0;entryY=0.5;entryDx=0;entryDy=0;" parent="1" source="1qY7lFmSE5d6h6JdwNv--4" target="1qY7lFmSE5d6h6JdwNv--6" edge="1">
          <mxGeometry relative="1" as="geometry" />
        </mxCell>
        <mxCell id="1qY7lFmSE5d6h6JdwNv--4" value="N1&amp;gt;N2&lt;br&gt;&lt;div&gt;N1&amp;gt;N3&lt;/div&gt;" style="rhombus;whiteSpace=wrap;html=1;" parent="1" vertex="1">
          <mxGeometry x="80" y="380" width="160" height="140" as="geometry" />
        </mxCell>
        <mxCell id="1qY7lFmSE5d6h6JdwNv--9" style="edgeStyle=orthogonalEdgeStyle;rounded=0;orthogonalLoop=1;jettySize=auto;html=1;entryX=0;entryY=0.5;entryDx=0;entryDy=0;" parent="1" source="1qY7lFmSE5d6h6JdwNv--6" target="1qY7lFmSE5d6h6JdwNv--7" edge="1">
          <mxGeometry relative="1" as="geometry" />
        </mxCell>
        <mxCell id="1qY7lFmSE5d6h6JdwNv--13" style="edgeStyle=orthogonalEdgeStyle;rounded=0;orthogonalLoop=1;jettySize=auto;html=1;entryX=0.5;entryY=0;entryDx=0;entryDy=0;" parent="1" source="1qY7lFmSE5d6h6JdwNv--6" target="oQhlyIun-JmuQOTVmAZq-2" edge="1">
          <mxGeometry relative="1" as="geometry">
            <mxPoint x="435" y="820" as="targetPoint" />
          </mxGeometry>
        </mxCell>
        <mxCell id="1qY7lFmSE5d6h6JdwNv--6" value="N2&amp;gt;N1&lt;div&gt;N2&amp;gt;N3&lt;/div&gt;" style="rhombus;whiteSpace=wrap;html=1;" parent="1" vertex="1">
          <mxGeometry x="360" y="385" width="150" height="130" as="geometry" />
        </mxCell>
        <mxCell id="1qY7lFmSE5d6h6JdwNv--15" style="edgeStyle=orthogonalEdgeStyle;rounded=0;orthogonalLoop=1;jettySize=auto;html=1;movable=1;resizable=1;rotatable=1;deletable=1;editable=1;locked=0;connectable=1;entryX=0.589;entryY=-0.014;entryDx=0;entryDy=0;entryPerimeter=0;" parent="1" source="1qY7lFmSE5d6h6JdwNv--7" target="oQhlyIun-JmuQOTVmAZq-3" edge="1">
          <mxGeometry relative="1" as="geometry">
            <mxPoint x="705" y="750" as="targetPoint" />
          </mxGeometry>
        </mxCell>
        <mxCell id="1qY7lFmSE5d6h6JdwNv--7" value="N3&amp;gt;N1&lt;div&gt;N3&amp;gt;N2&lt;/div&gt;" style="rhombus;whiteSpace=wrap;html=1;" parent="1" vertex="1">
          <mxGeometry x="630" y="385" width="150" height="130" as="geometry" />
        </mxCell>
        <mxCell id="1qY7lFmSE5d6h6JdwNv--10" value="Falso" style="text;html=1;align=center;verticalAlign=middle;resizable=0;points=[];autosize=1;strokeColor=none;fillColor=none;fontSize=18;" parent="1" vertex="1">
          <mxGeometry x="260" y="393" width="70" height="40" as="geometry" />
        </mxCell>
        <mxCell id="1qY7lFmSE5d6h6JdwNv--11" value="Falso" style="text;html=1;align=center;verticalAlign=middle;resizable=0;points=[];autosize=1;strokeColor=none;fillColor=none;fontSize=18;" parent="1" vertex="1">
          <mxGeometry x="530" y="393" width="70" height="40" as="geometry" />
        </mxCell>
        <mxCell id="oQhlyIun-JmuQOTVmAZq-11" style="edgeStyle=orthogonalEdgeStyle;rounded=0;orthogonalLoop=1;jettySize=auto;html=1;" edge="1" parent="1" source="1qY7lFmSE5d6h6JdwNv--12">
          <mxGeometry relative="1" as="geometry">
            <mxPoint x="160" y="1050" as="targetPoint" />
          </mxGeometry>
        </mxCell>
        <mxCell id="1qY7lFmSE5d6h6JdwNv--12" value="Escreve N1" style="shape=parallelogram;perimeter=parallelogramPerimeter;whiteSpace=wrap;html=1;fixedSize=1;" parent="1" vertex="1">
          <mxGeometry x="70" y="830" width="180" height="70" as="geometry" />
        </mxCell>
        <mxCell id="1qY7lFmSE5d6h6JdwNv--19" value="&lt;font style=&quot;font-size: 18px;&quot;&gt;Verdadeiro&lt;/font&gt;" style="text;html=1;align=center;verticalAlign=middle;resizable=0;points=[];autosize=1;strokeColor=none;fillColor=none;" parent="1" vertex="1">
          <mxGeometry x="440" y="600" width="110" height="40" as="geometry" />
        </mxCell>
        <mxCell id="1qY7lFmSE5d6h6JdwNv--20" value="" style="edgeStyle=orthogonalEdgeStyle;rounded=0;orthogonalLoop=1;jettySize=auto;html=1;entryX=0.5;entryY=0;entryDx=0;entryDy=0;" parent="1" source="1qY7lFmSE5d6h6JdwNv--4" target="1qY7lFmSE5d6h6JdwNv--12" edge="1">
          <mxGeometry relative="1" as="geometry">
            <mxPoint x="160" y="820" as="targetPoint" />
            <mxPoint x="160" y="520" as="sourcePoint" />
            <Array as="points" />
          </mxGeometry>
        </mxCell>
        <mxCell id="1qY7lFmSE5d6h6JdwNv--18" value="&lt;font style=&quot;font-size: 18px;&quot;&gt;Verdadeiro&lt;/font&gt;" style="text;html=1;align=center;verticalAlign=middle;resizable=0;points=[];autosize=1;strokeColor=none;fillColor=none;" parent="1" vertex="1">
          <mxGeometry x="160" y="585" width="110" height="40" as="geometry" />
        </mxCell>
        <mxCell id="oQhlyIun-JmuQOTVmAZq-1" value="&lt;font style=&quot;font-size: 18px;&quot;&gt;Verdadeiro&lt;/font&gt;" style="text;html=1;align=center;verticalAlign=middle;resizable=0;points=[];autosize=1;strokeColor=none;fillColor=none;" vertex="1" parent="1">
          <mxGeometry x="700" y="600" width="110" height="40" as="geometry" />
        </mxCell>
        <mxCell id="oQhlyIun-JmuQOTVmAZq-10" style="edgeStyle=orthogonalEdgeStyle;rounded=0;orthogonalLoop=1;jettySize=auto;html=1;entryX=0.5;entryY=0;entryDx=0;entryDy=0;" edge="1" parent="1" source="oQhlyIun-JmuQOTVmAZq-2" target="oQhlyIun-JmuQOTVmAZq-13">
          <mxGeometry relative="1" as="geometry">
            <mxPoint x="420" y="970" as="targetPoint" />
            <Array as="points">
              <mxPoint x="430" y="935" />
              <mxPoint x="431" y="935" />
              <mxPoint x="431" y="980" />
              <mxPoint x="420" y="980" />
              <mxPoint x="420" y="990" />
            </Array>
          </mxGeometry>
        </mxCell>
        <mxCell id="oQhlyIun-JmuQOTVmAZq-2" value="Escrever N2" style="shape=parallelogram;perimeter=parallelogramPerimeter;whiteSpace=wrap;html=1;fixedSize=1;" vertex="1" parent="1">
          <mxGeometry x="340" y="830" width="180" height="70" as="geometry" />
        </mxCell>
        <mxCell id="oQhlyIun-JmuQOTVmAZq-5" style="edgeStyle=orthogonalEdgeStyle;rounded=0;orthogonalLoop=1;jettySize=auto;html=1;" edge="1" parent="1" source="oQhlyIun-JmuQOTVmAZq-3">
          <mxGeometry relative="1" as="geometry">
            <mxPoint x="610" y="1030" as="targetPoint" />
          </mxGeometry>
        </mxCell>
        <mxCell id="oQhlyIun-JmuQOTVmAZq-3" value="Escrever N3" style="shape=parallelogram;perimeter=parallelogramPerimeter;whiteSpace=wrap;html=1;fixedSize=1;" vertex="1" parent="1">
          <mxGeometry x="600" y="830" width="180" height="70" as="geometry" />
        </mxCell>
        <mxCell id="oQhlyIun-JmuQOTVmAZq-9" value="" style="endArrow=classic;html=1;rounded=0;entryX=1;entryY=0.5;entryDx=0;entryDy=0;" edge="1" parent="1" target="oQhlyIun-JmuQOTVmAZq-13">
          <mxGeometry width="50" height="50" relative="1" as="geometry">
            <mxPoint x="610" y="1030" as="sourcePoint" />
            <mxPoint x="480" y="1040" as="targetPoint" />
            <Array as="points">
              <mxPoint x="510" y="1041" />
            </Array>
          </mxGeometry>
        </mxCell>
        <mxCell id="oQhlyIun-JmuQOTVmAZq-12" value="" style="endArrow=classic;html=1;rounded=0;entryX=0;entryY=0.5;entryDx=0;entryDy=0;" edge="1" parent="1" target="oQhlyIun-JmuQOTVmAZq-13">
          <mxGeometry width="50" height="50" relative="1" as="geometry">
            <mxPoint x="160" y="1050" as="sourcePoint" />
            <mxPoint x="340" y="1046" as="targetPoint" />
          </mxGeometry>
        </mxCell>
        <mxCell id="oQhlyIun-JmuQOTVmAZq-13" value="Fim" style="ellipse;whiteSpace=wrap;html=1;" vertex="1" parent="1">
          <mxGeometry x="358" y="990" width="120" height="80" as="geometry" />
        </mxCell>
      </root>
    </mxGraphModel>
  </diagram>
</mxfile>
